<svg width="100%" height="100%" aria-hidden="true" viewBox="-5 -5 245 200" preserveAspectRatio="xMidYMid meet"><defs><filter id="rough" x="-5%" y="-5%" width="110%" height="110%"><feTurbulence type="fractalNoise" baseFrequency="0.035" numOctaves="4" seed="3" result="noise"></feTurbulence><feDisplacementMap in="SourceGraphic" in2="noise" scale="1.1" xChannelSelector="R" yChannelSelector="G"></feDisplacementMap></filter><radialGradient id="mapBg" cx="50%" cy="50%" r="70%"><stop offset="0%" stop-color="#f2e8d0"></stop><stop offset="100%" stop-color="#e4d6b8"></stop></radialGradient></defs><rect x="-5" y="-5" width="245" height="200" fill="url(#mapBg)"></rect><g transform="rotate(-10 115 95)"><g filter="url(#rough)" style="cursor: pointer;"><path d="M95.1,141.7 L84.9,153.5 L88.3,155.5 L91.7,156.8 L94.7,157.4 L97.3,157.5 L100.3,157.3 L104.9,156 L108.5,153.9 L112.9,150 L107,145.2 L112.1,138.6 L105.3,132.2 L103.2,137 L100.6,140.6 L98.7,141.9 L97.1,142.2 L95.1,141.7Z" fill="#cabe7e" fill-opacity="0.72" stroke="#746e32" stroke-width="0.85" stroke-opacity="1" stroke-linejoin="round"></path></g><g filter="url(#rough)" style="cursor: pointer;"><path d="M7.1,1.5 L10.1,0.5 L13.5,0 L17.3,0 L21.6,0.4 L26.3,1.3 L31.4,2.6 L36.1,4.1 L47,8.1 L37.5,23 L35.2,22 L31.2,20.8 L29,20.4 L27.1,20.3 L25.5,20.5 L24.1,20.9 L4.7,2.9 L7.1,1.5Z" fill="#c4a090" fill-opacity="0.72" stroke="#7a5040" stroke-width="0.85" stroke-opacity="1" stroke-linejoin="round"></path></g><g filter="url(#rough)" style="cursor: pointer;"><path d="M128.3,131.3 L138.2,137.6 L129.6,151.2 L120.5,143.5 L128.3,131.3Z" fill="#cabe7e" fill-opacity="0.72" stroke="#746e32" stroke-width="0.85" stroke-opacity="1" stroke-linejoin="round"></path></g><g filter="url(#rough)" style="cursor: pointer;"><path d="M88.1,132.1 L91.1,137.8 L92.5,139.7 L95.1,141.7 L84.9,153.5 L83.3,152.2 L82.2,151.2 L80.7,149.6 L79.6,148.2 L78.2,146.3 L77.1,144.3 L88.1,132.1Z" fill="#cabe7e" fill-opacity="0.72" stroke="#746e32" stroke-width="0.85" stroke-opacity="1" stroke-linejoin="round"></path></g><g filter="url(#rough)" style="cursor: pointer;"><path d="M138.2,137.6 L129.6,151.2 L142.8,161.5 L151.3,144.9 L138.2,137.6Z" fill="#cabe7e" fill-opacity="0.72" stroke="#746e32" stroke-width="0.85" stroke-opacity="1" stroke-linejoin="round"></path></g><g filter="url(#rough)" style="cursor: pointer;"><path d="M107,145.2 L112.9,150 L115.6,146.4 L117.3,143.3 L112.1,138.6 L107,145.2Z" fill="#cabe7e" fill-opacity="0.72" stroke="#746e32" stroke-width="0.85" stroke-opacity="1" stroke-linejoin="round"></path></g><g filter="url(#rough)" style="cursor: pointer;"><path d="M197.7,178.9 L200.5,179.9 L203.2,180 L205.1,179 L225.2,197 L222,199.2 L217.4,200 L213,199.7 L208,198.7 L199.5,196 L190.3,191.9 L181.8,187.6 L192.6,175.8 L195.5,177.8 L197.7,178.9Z" fill="#88a8bc" fill-opacity="0.72" stroke="#385e70" stroke-width="0.85" stroke-opacity="1" stroke-linejoin="round"></path></g><g filter="url(#rough)" style="cursor: pointer;"><path d="M22.7,24.6 L23.3,27.6 L24.5,31.1 L8.2,39 L4.9,32.5 L2.6,26.6 L1.2,22.3 L0.4,18.2 L0,14.5 L0.2,11.2 L0.8,8.3 L1.3,7 L2.8,4.7 L4.7,2.9 L24.1,20.9 L23,22.4 L22.7,24.6Z" fill="#c4a090" fill-opacity="0.72" stroke="#7a5040" stroke-width="0.85" stroke-opacity="1" stroke-linejoin="round"></path></g><g filter="url(#rough)" style="cursor: pointer;"><path d="M210.6,156 L200.3,167.3 L202.6,170 L204.4,172.7 L205.2,174.7 L205.6,177.4 L205.1,179 L225.2,197 L226.9,193.7 L227.2,189.1 L226,183.4 L223.3,176.6 L218,166.9 L210.6,156Z" fill="#88a8bc" fill-opacity="0.72" stroke="#385e70" stroke-width="0.85" stroke-opacity="1" stroke-linejoin="round"></path></g><g filter="url(#rough)" style="cursor: pointer;"><path d="M128.5,88.8 L135.6,86.1 L140.3,83.4 L152.3,96.2 L149.5,97.8 L146.9,99.1 L144.7,100.2 L141.5,101.6 L128.5,88.8Z" fill="#cabe7e" fill-opacity="0.72" stroke="#746e32" stroke-width="0.85" stroke-opacity="1" stroke-linejoin="round"></path></g><g filter="url(#rough)" style="cursor: pointer;"><path d="M160,96.1 L163.5,92.7 L166.9,88.5 L178.1,93.8 L175.3,98.2 L169.4,104.4 L160,96.1Z" fill="#98b690" fill-opacity="0.72" stroke="#487848" stroke-width="0.85" stroke-opacity="1" stroke-linejoin="round"></path></g><g filter="url(#rough)" style="cursor: pointer;"><path d="M105.9,130.2 L106.4,128.6 L107,126.3 L107.9,122.1 L108.6,117.2 L118.2,124.3 L127.1,130.4 L119.3,142.4 L117.3,140.7 L111.4,135.2 L105.9,130.2Z" fill="#98b690" fill-opacity="0.72" stroke="#487848" stroke-width="0.85" stroke-opacity="1" stroke-linejoin="round"></path></g><g filter="url(#rough)" style="cursor: pointer;"><path d="M150.7,111.7 L152.8,114.1 L154.7,116.3 L166.6,108.1 L164.2,105.9 L162.2,104.1 L150.7,111.7Z" fill="#cabe7e" fill-opacity="0.72" stroke="#746e32" stroke-width="0.85" stroke-opacity="1" stroke-linejoin="round"></path></g><g filter="url(#rough)" style="cursor: pointer;"><path d="M162.2,104.1 L157.2,99.7 L154.4,97.1 L151.5,98.9 L148,100.8 L145.3,102.1 L143,103.1 L150.7,111.7 L162.2,104.1Z" fill="#cabe7e" fill-opacity="0.72" stroke="#746e32" stroke-width="0.85" stroke-opacity="1" stroke-linejoin="round"></path></g><g filter="url(#rough)" style="cursor: pointer;"><path d="M122.4,43.5 L124.8,28.2 L127.5,28.6 L130.6,29.6 L133.1,30.8 L126.5,44.9 L124.9,43.8 L123.1,43.5 L122.4,43.5Z" fill="#cabe7e" fill-opacity="0.72" stroke="#746e32" stroke-width="0.85" stroke-opacity="1" stroke-linejoin="round"></path></g><g filter="url(#rough)" style="cursor: pointer;"><path d="M133.1,30.8 L133.9,31.2 L136.7,33.4 L138.8,35.8 L141.1,39.4 L142.2,42.6 L143.1,46 L143.2,50.4 L127.7,49.3 L127.4,46.4 L126.5,44.9 L133.1,30.8Z" fill="#cabe7e" fill-opacity="0.72" stroke="#746e32" stroke-width="0.85" stroke-opacity="1" stroke-linejoin="round"></path></g><g filter="url(#rough)" style="cursor: pointer;"><path d="M94.5,41.4 L96.7,22.4 L91.6,22.2 L87.7,22.4 L84.4,22.9 L77.2,24.4 L82.7,43.4 L86.2,42.2 L90.3,41.4 L93.3,41.4 L94.5,41.4Z" fill="#c8b07a" fill-opacity="0.72" stroke="#806828" stroke-width="0.85" stroke-opacity="1" stroke-linejoin="round"></path></g><g filter="url(#rough)" style="cursor: pointer;"><path d="M109.8,49.1 L112.9,47.1 L115.9,45.5 L118,44.6 L120.1,43.9 L121.5,43.6 L122.4,43.5 L124.8,28.2 L122.6,28.1 L120.1,28.3 L117.8,28.6 L115.8,29.1 L113.4,27.7 L110.7,26.2 L109.8,49.1Z" fill="#cabe7e" fill-opacity="0.72" stroke="#746e32" stroke-width="0.85" stroke-opacity="1" stroke-linejoin="round"></path></g><g filter="url(#rough)" style="cursor: pointer;"><path d="M143.1,51.8 L142.7,56 L141.7,59.5 L126.8,55.5 L127,54.8 L127.5,52.5 L127.7,50.9 L143.1,51.8Z" fill="#cabe7e" fill-opacity="0.72" stroke="#746e32" stroke-width="0.85" stroke-opacity="1" stroke-linejoin="round"></path></g><g filter="url(#rough)" style="cursor: pointer;"><path d="M98.3,22.6 L103,23.5 L106.5,24.5 L109.4,25.7 L110.7,26.2 L109.8,49.1 L108.6,47.8 L107.2,46.6 L105.7,45.5 L103.8,44.2 L101,43 L98.5,42.1 L96.4,41.6 L98.3,22.6Z" fill="#c8b07a" fill-opacity="0.72" stroke="#806828" stroke-width="0.85" stroke-opacity="1" stroke-linejoin="round"></path></g><g filter="url(#rough)" style="cursor: pointer;"><path d="M129.1,67.7 L136.3,69.7 L137.4,68.6 L138.9,66.3 L141.4,60.3 L141.7,59.5 L126.8,55.5 L125.6,60.2 L124.2,63.8 L122.2,66.4 L129.1,67.7Z" fill="#cabe7e" fill-opacity="0.72" stroke="#746e32" stroke-width="0.85" stroke-opacity="1" stroke-linejoin="round"></path></g><g filter="url(#rough)" style="cursor: pointer;"><path d="M77.2,46.7 L60.8,35.5 L64.7,32 L70,28 L76.4,24.6 L77.2,24.4 L82.7,43.4 L81.1,44.2 L79.5,45.1 L77.2,46.7Z" fill="#c8b07a" fill-opacity="0.72" stroke="#806828" stroke-width="0.85" stroke-opacity="1" stroke-linejoin="round"></path></g><g filter="url(#rough)" style="cursor: pointer;"><path d="M32.4,43.6 L30.9,41.4 L27.8,36.6 L25.8,33.7 L24.5,31.1 L8.2,39 L11.3,44.4 L14.1,49.1 L16.1,52 L32.4,43.6Z" fill="#c4a090" fill-opacity="0.72" stroke="#7a5040" stroke-width="0.85" stroke-opacity="1" stroke-linejoin="round"></path></g><g filter="url(#rough)" style="cursor: pointer;"><path d="M17.1,53.4 L33.4,44.8 L38.4,51.3 L42.5,56.1 L40.4,58.7 L38,62.5 L36,66.5 L34.3,71.1 L33.4,74.6 L26.6,66.1 L22,60.4 L17.1,53.4Z" fill="#c8b07a" fill-opacity="0.72" stroke="#806828" stroke-width="0.85" stroke-opacity="1" stroke-linejoin="round"></path></g><g filter="url(#rough)" style="cursor: pointer;"><path d="M34.6,80.7 L34.8,78.4 L35.2,75.7 L35.8,72.8 L37.6,67.7 L39.2,64.4 L40.8,61.5 L43.8,57.5 L57.2,71.8 L56.4,73 L55.2,75.8 L54.4,78.3 L34.6,80.7Z" fill="#c8b07a" fill-opacity="0.72" stroke="#806828" stroke-width="0.85" stroke-opacity="1" stroke-linejoin="round"></path></g><g filter="url(#rough)" style="cursor: pointer;"><path d="M54,80.3 L34.5,82.7 L35,88.9 L35.8,92.4 L36.6,95 L38.5,99.8 L47.7,96.1 L56.5,92.4 L55.9,91.2 L55.3,89.9 L54.4,87.2 L54.1,85.7 L53.9,84.4 L53.9,82.3 L54,80.3Z" fill="#c8b07a" fill-opacity="0.72" stroke="#806828" stroke-width="0.85" stroke-opacity="1" stroke-linejoin="round"></path></g><g filter="url(#rough)" style="cursor: pointer;"><path d="M78,149.3 L74.8,151.8 L63.7,141 L66.2,139 L72.8,133.3 L73.3,139.3 L74.9,144.1 L76.4,147 L78,149.3Z" fill="#cabe7e" fill-opacity="0.72" stroke="#746e32" stroke-width="0.85" stroke-opacity="1" stroke-linejoin="round"></path></g><g filter="url(#rough)" style="cursor: pointer;"><path d="M43.2,110 L42.3,109 L41.4,107.9 L40.2,106.2 L37.6,110.8 L35.5,114.8 L33.1,119.9 L31.6,123.2 L46.8,127 L49,122.3 L49.7,120.9 L51.6,117.3 L48.6,115.1 L45.7,112.6 L43.2,110Z" fill="#cabe7e" fill-opacity="0.72" stroke="#746e32" stroke-width="0.85" stroke-opacity="1" stroke-linejoin="round"></path></g><g filter="url(#rough)" style="cursor: pointer;"><path d="M44.8,132 L29.6,128.7 L30.5,126.3 L31.6,123.2 L46.8,127 L45.8,129.4 L44.8,132Z" fill="#cabe7e" fill-opacity="0.72" stroke="#746e32" stroke-width="0.85" stroke-opacity="1" stroke-linejoin="round"></path></g><g filter="url(#rough)" style="cursor: pointer;"><path d="M67,157.4 L70.2,155.3 L74.8,151.8 L63.7,141 L61.1,142.9 L58.6,144.5 L67,157.4Z" fill="#cabe7e" fill-opacity="0.72" stroke="#746e32" stroke-width="0.85" stroke-opacity="1" stroke-linejoin="round"></path></g><g filter="url(#rough)" style="cursor: pointer;"><path d="M44.3,133.4 L29.1,130.1 L28.2,133.5 L27.2,138.5 L42.7,139.5 L43.3,136.6 L44.3,133.4Z" fill="#cabe7e" fill-opacity="0.72" stroke="#746e32" stroke-width="0.85" stroke-opacity="1" stroke-linejoin="round"></path></g><g filter="url(#rough)" style="cursor: pointer;"><path d="M43.2,146.6 L42.7,145.4 L42.5,144.5 L42.4,143.2 L42.4,141.8 L42.6,140.3 L42.7,139.5 L27.2,138.5 L27,141.9 L27.1,146.1 L27.7,149.2 L28.5,151.5 L29.4,153.7 L30.6,155.7 L31.8,157.2 L43.2,146.6Z" fill="#cabe7e" fill-opacity="0.72" stroke="#746e32" stroke-width="0.85" stroke-opacity="1" stroke-linejoin="round"></path></g><g filter="url(#rough)" style="cursor: pointer;"><path d="M43.2,146.6 L31.8,157.2 L32.8,158.4 L34,159.5 L35.5,160.6 L36.8,161.5 L38.5,162.4 L39.9,162.9 L41.8,163.6 L43.5,164 L45.4,164.2 L50.6,148.5 L43.2,146.6Z" fill="#cabe7e" fill-opacity="0.72" stroke="#746e32" stroke-width="0.85" stroke-opacity="1" stroke-linejoin="round"></path></g><g filter="url(#rough)" style="cursor: pointer;"><path d="M50.6,148.5 L52,148 L53.1,147.6 L54.4,147 L56.1,146.1 L57.2,145.4 L65.5,158.3 L64,159.2 L62.3,160.1 L60.9,160.8 L59.2,161.6 L57.4,162.4 L55.4,163 L53.9,163.5 L52.7,163.7 L52,163.9 L50.3,164.1 L49.1,164.3 L48.4,164.3 L47.1,164.3 L45.4,164.2 L48.8,154 L50.6,148.5Z" fill="#cabe7e" fill-opacity="0.72" stroke="#746e32" stroke-width="0.85" stroke-opacity="1" stroke-linejoin="round"></path></g><g filter="url(#rough)" style="cursor: pointer;"><path d="M84.5,121.6 L74.9,131.7 L74.8,133.5 L74.8,136.5 L75.3,139.6 L76.4,142.7 L77.1,144.3 L88.1,132.1 L86.2,126.7 L84.5,121.6Z" fill="#cabe7e" fill-opacity="0.72" stroke="#746e32" stroke-width="0.85" stroke-opacity="1" stroke-linejoin="round"></path></g><g filter="url(#rough)" style="cursor: pointer;"><path d="M38.5,99.8 L56.5,92.4 L57,93.3 L58.3,95.1 L59.9,96.8 L61.6,98.4 L62.8,99.4 L52.6,115.6 L50.4,114.1 L47.4,111.5 L44.6,108.7 L42.3,105.9 L40.2,102.8 L39.1,100.8 L38.5,99.8Z" fill="#c8b07a" fill-opacity="0.72" stroke="#806828" stroke-width="0.85" stroke-opacity="1" stroke-linejoin="round"></path></g><g filter="url(#rough)" style="cursor: pointer;"><path d="M167.8,109.2 L171.8,113 L175.7,116.8 L162.2,125.6 L158.6,121 L155.7,117.5 L167.8,109.2Z" fill="#cabe7e" fill-opacity="0.72" stroke="#746e32" stroke-width="0.85" stroke-opacity="1" stroke-linejoin="round"></path></g><g filter="url(#rough)"><path d="M144.5,75.7 L162.7,67.3 L165.1,82.1 L164.3,84.1 L144.2,79.5 L144.5,75.7Z" fill="rgba(90,65,40,0.12)" stroke="rgba(90,65,40,0.5)" stroke-width="0.7" stroke-dasharray="1.8 1.2" stroke-linejoin="round"></path></g><g filter="url(#rough)"><path d="M143.5,74 L161.7,65.5 L154.7,58.8 L144.8,53.5 L144.4,56.9 L138.3,70.6 L141.2,72.1 L143.5,74Z" fill="rgba(90,65,40,0.12)" stroke="rgba(90,65,40,0.5)" stroke-width="0.7" stroke-dasharray="1.8 1.2" stroke-linejoin="round"></path></g><g filter="url(#rough)"><path d="M144.2,79.5 L164.3,84.1 L155.3,94.3 L152.3,96.2 L140.3,83.4 L144.2,79.5Z" fill="rgba(90,65,40,0.12)" stroke="rgba(90,65,40,0.5)" stroke-width="0.7" stroke-dasharray="1.8 1.2" stroke-linejoin="round"></path></g><g style="cursor: pointer;"><path d="M91.6,76.8 L100.4,77.2 L100,85 L91.3,84.6 L91.6,76.8Z" fill="rgba(46,68,57,0.4)" stroke="rgba(46,68,57,0.9)" stroke-width="1.5" stroke-dasharray="none" stroke-linejoin="round"></path></g><g filter="url(#rough)"><path d="M119.5,72.6 L123.6,72.8 L123.5,76.7 L119.3,76.5 L119.5,72.6Z" fill="rgba(90,65,40,0.12)" stroke="rgba(90,65,40,0.5)" stroke-width="0.7" stroke-dasharray="1.8 1.2" stroke-linejoin="round"></path></g><g filter="url(#rough)"><path d="M165.4,62.5 L162,58.3 L154.2,52.7 L159.2,42 L176.2,57.7 L165.4,62.5Z" fill="rgba(90,65,40,0.12)" stroke="rgba(90,65,40,0.5)" stroke-width="0.7" stroke-dasharray="1.8 1.2" stroke-linejoin="round"></path></g><g filter="url(#rough)"><path d="M167.7,66.6 L182.2,79.7 L169.9,77.8 L167.7,66.6Z" fill="rgba(90,65,40,0.12)" stroke="rgba(90,65,40,0.5)" stroke-width="0.7" stroke-dasharray="1.8 1.2" stroke-linejoin="round"></path></g><g filter="url(#rough)"><path d="M169.9,77.8 L182.2,79.7 L178.1,93.8 L166.9,88.5 L169.9,77.8Z" fill="rgba(90,65,40,0.12)" stroke="rgba(90,65,40,0.5)" stroke-width="0.7" stroke-dasharray="1.8 1.2" stroke-linejoin="round"></path></g><g filter="url(#rough)"><path d="M143.6,63.4 L145.2,65.1 L143.8,66.6 L142.1,65.6 L142,64.9 L143.6,63.4Z" fill="rgba(90,65,40,0.12)" stroke="rgba(90,65,40,0.5)" stroke-width="0.7" stroke-dasharray="1.8 1.2" stroke-linejoin="round"></path></g><g style="cursor: pointer;"><circle cx="95.8" cy="80.9" r="9" fill="transparent"></circle><circle cx="95.8" cy="80.9" r="6" fill="none" stroke="rgba(46,68,57,0.55)" stroke-width="0.8" stroke-dasharray="2 1.5"></circle><circle cx="95.8" cy="80.9" r="2.2" fill="rgba(46,68,57,0.8)" stroke="rgba(46,68,57,0.9)" stroke-width="0.5"></circle><text x="95.8" y="81.75" font-size="2.6" fill="#e8dfc9" text-anchor="middle" dominant-baseline="middle" font-family="serif" style="pointer-events: none;">✶</text></g><circle cx="186.6" cy="136.3" r="1.2" fill="rgba(100,65,35,0.4)" stroke="rgba(100,65,35,0.55)" stroke-width="0.4"></circle><circle cx="175.2" cy="73.2" r="1.2" fill="rgba(100,65,35,0.4)" stroke="rgba(100,65,35,0.55)" stroke-width="0.4"></circle><circle cx="121.1" cy="71.5" r="1.2" fill="rgba(100,65,35,0.4)" stroke="rgba(100,65,35,0.55)" stroke-width="0.4"></circle><circle cx="131.4" cy="92.1" r="1.2" fill="rgba(100,65,35,0.4)" stroke="rgba(100,65,35,0.55)" stroke-width="0.4"></circle><circle cx="116.6" cy="72.1" r="1.2" fill="rgba(100,65,35,0.4)" stroke="rgba(100,65,35,0.55)" stroke-width="0.4"></circle><circle cx="92.8" cy="66.2" r="1.2" fill="rgba(100,65,35,0.4)" stroke="rgba(100,65,35,0.55)" stroke-width="0.4"></circle><circle cx="128.2" cy="66.5" r="1.2" fill="rgba(100,65,35,0.4)" stroke="rgba(100,65,35,0.55)" stroke-width="0.4"></circle><circle cx="84.7" cy="103.6" r="1.2" fill="rgba(100,65,35,0.4)" stroke="rgba(100,65,35,0.55)" stroke-width="0.4"></circle><circle cx="113.5" cy="89.5" r="1.2" fill="rgba(100,65,35,0.4)" stroke="rgba(100,65,35,0.55)" stroke-width="0.4"></circle><circle cx="114.6" cy="97.8" r="1.2" fill="rgba(100,65,35,0.4)" stroke="rgba(100,65,35,0.55)" stroke-width="0.4"></circle><circle cx="162.6" cy="55.1" r="1.2" fill="rgba(100,65,35,0.4)" stroke="rgba(100,65,35,0.55)" stroke-width="0.4"></circle><circle cx="139.8" cy="33.2" r="1.2" fill="rgba(100,65,35,0.4)" stroke="rgba(100,65,35,0.55)" stroke-width="0.4"></circle><circle cx="66.6" cy="109.1" r="1.2" fill="rgba(100,65,35,0.4)" stroke="rgba(100,65,35,0.55)" stroke-width="0.4"></circle><circle cx="111.4" cy="66.2" r="1.2" fill="rgba(100,65,35,0.4)" stroke="rgba(100,65,35,0.55)" stroke-width="0.4"></circle><circle cx="133.7" cy="107.5" r="1.2" fill="rgba(100,65,35,0.4)" stroke="rgba(100,65,35,0.55)" stroke-width="0.4"></circle><circle cx="116.5" cy="157.4" r="1.2" fill="rgba(100,65,35,0.4)" stroke="rgba(100,65,35,0.55)" stroke-width="0.4"></circle><circle cx="187.5" cy="55.9" r="1.2" fill="rgba(100,65,35,0.4)" stroke="rgba(100,65,35,0.55)" stroke-width="0.4"></circle><circle cx="126.7" cy="100.5" r="1.2" fill="rgba(100,65,35,0.4)" stroke="rgba(100,65,35,0.55)" stroke-width="0.4"></circle><circle cx="155" cy="94.1" r="1.2" fill="rgba(100,65,35,0.4)" stroke="rgba(100,65,35,0.55)" stroke-width="0.4"></circle><circle cx="179.7" cy="100" r="1.2" fill="rgba(100,65,35,0.4)" stroke="rgba(100,65,35,0.55)" stroke-width="0.4"></circle><circle cx="101.8" cy="113.9" r="1.2" fill="rgba(100,65,35,0.4)" stroke="rgba(100,65,35,0.55)" stroke-width="0.4"></circle><circle cx="185.9" cy="140.8" r="1.2" fill="rgba(100,65,35,0.4)" stroke="rgba(100,65,35,0.55)" stroke-width="0.4"></circle><circle cx="169.1" cy="115.8" r="1.2" fill="rgba(100,65,35,0.4)" stroke="rgba(100,65,35,0.55)" stroke-width="0.4"></circle><circle cx="131.6" cy="53.5" r="1.2" fill="rgba(100,65,35,0.4)" stroke="rgba(100,65,35,0.55)" stroke-width="0.4"></circle><circle cx="86.4" cy="17.8" r="1.2" fill="rgba(100,65,35,0.4)" stroke="rgba(100,65,35,0.55)" stroke-width="0.4"></circle><circle cx="109.7" cy="33.8" r="1.2" fill="rgba(100,65,35,0.4)" stroke="rgba(100,65,35,0.55)" stroke-width="0.4"></circle><circle cx="111.6" cy="57.2" r="1.2" fill="rgba(100,65,35,0.4)" stroke="rgba(100,65,35,0.55)" stroke-width="0.4"></circle><circle cx="92.6" cy="71.5" r="1.2" fill="rgba(100,65,35,0.4)" stroke="rgba(100,65,35,0.55)" stroke-width="0.4"></circle><circle cx="59.8" cy="72.7" r="1.2" fill="rgba(100,65,35,0.4)" stroke="rgba(100,65,35,0.55)" stroke-width="0.4"></circle><circle cx="119.6" cy="104.2" r="1.2" fill="rgba(100,65,35,0.4)" stroke="rgba(100,65,35,0.55)" stroke-width="0.4"></circle><circle cx="123.4" cy="99.1" r="1.2" fill="rgba(100,65,35,0.4)" stroke="rgba(100,65,35,0.55)" stroke-width="0.4"></circle><circle cx="60.6" cy="77.8" r="1.2" fill="rgba(100,65,35,0.4)" stroke="rgba(100,65,35,0.55)" stroke-width="0.4"></circle><circle cx="93.1" cy="91.3" r="1.2" fill="rgba(100,65,35,0.4)" stroke="rgba(100,65,35,0.55)" stroke-width="0.4"></circle><circle cx="186.8" cy="118.2" r="1.2" fill="rgba(100,65,35,0.4)" stroke="rgba(100,65,35,0.55)" stroke-width="0.4"></circle><circle cx="178.7" cy="117.2" r="1.2" fill="rgba(100,65,35,0.4)" stroke="rgba(100,65,35,0.55)" stroke-width="0.4"></circle><circle cx="137.4" cy="82.1" r="1.2" fill="rgba(100,65,35,0.4)" stroke="rgba(100,65,35,0.55)" stroke-width="0.4"></circle><circle cx="108.3" cy="78.8" r="1.2" fill="rgba(100,65,35,0.4)" stroke="rgba(100,65,35,0.55)" stroke-width="0.4"></circle><circle cx="164.5" cy="129.1" r="1.2" fill="rgba(100,65,35,0.4)" stroke="rgba(100,65,35,0.55)" stroke-width="0.4"></circle><circle cx="102.6" cy="90.1" r="1.2" fill="rgba(100,65,35,0.4)" stroke="rgba(100,65,35,0.55)" stroke-width="0.4"></circle><circle cx="180.3" cy="82.9" r="1.2" fill="rgba(100,65,35,0.4)" stroke="rgba(100,65,35,0.55)" stroke-width="0.4"></circle><circle cx="158.4" cy="153.1" r="1.2" fill="rgba(100,65,35,0.4)" stroke="rgba(100,65,35,0.55)" stroke-width="0.4"></circle><circle cx="194.1" cy="151.3" r="1.2" fill="rgba(100,65,35,0.4)" stroke="rgba(100,65,35,0.55)" stroke-width="0.4"></circle><circle cx="148.5" cy="92.1" r="1.2" fill="rgba(100,65,35,0.4)" stroke="rgba(100,65,35,0.55)" stroke-width="0.4"></circle><circle cx="211.6" cy="149.1" r="1.2" fill="rgba(100,65,35,0.4)" stroke="rgba(100,65,35,0.55)" stroke-width="0.4"></circle><g style="cursor: pointer;"><circle cx="68" cy="84.8" r="1.8" fill="#5c2518" stroke="#3a1510" stroke-width="0.7"></circle><circle cx="68" cy="84.8" r="3.5" fill="none" stroke="rgba(92,37,24,0.35)" stroke-width="0.6"></circle><title>The Flaming Trampoline · 3 events</title></g><g style="cursor: pointer;"><circle cx="78.1" cy="69.5" r="1.8" fill="#5c2518" stroke="#3a1510" stroke-width="0.7"></circle><circle cx="78.1" cy="69.5" r="3.5" fill="none" stroke="rgba(92,37,24,0.35)" stroke-width="0.6"></circle><title>Fire Arena · 1 event</title></g><g style="cursor: pointer;"><circle cx="113.9" cy="58.2" r="1.8" fill="#5c2518" stroke="#3a1510" stroke-width="0.7"></circle><circle cx="113.9" cy="58.2" r="3.5" fill="none" stroke="rgba(92,37,24,0.35)" stroke-width="0.6"></circle><title>HEPTAGON TROPICOOL · 1 event</title></g><g style="cursor: pointer;"><circle cx="97" cy="54.7" r="1.8" fill="#5c2518" stroke="#3a1510" stroke-width="0.7"></circle><circle cx="97" cy="54.7" r="3.5" fill="none" stroke="rgba(92,37,24,0.35)" stroke-width="0.6"></circle><title>The Slutty Penguin Bar · 8 events</title></g><g style="cursor: pointer;"><circle cx="129.1" cy="107.7" r="1.8" fill="#5c2518" stroke="#3a1510" stroke-width="0.7"></circle><circle cx="129.1" cy="107.7" r="3.5" fill="none" stroke="rgba(92,37,24,0.35)" stroke-width="0.6"></circle><title>Heat under the storm · 2 events</title></g></g><g transform="rotate(-10 115 95)" style="pointer-events: none;"><text x="99.9" y="149.29999999999998" font-size="4" fill="#26302a" stroke="#f2e8d0" stroke-width="1.2" paint-order="stroke fill" text-anchor="middle" font-family="'Special Elite', monospace" transform="rotate(10 99.9 147.7)">Bread &amp; Tomato</text><text x="24" y="11.1" font-size="4" fill="#26302a" stroke="#f2e8d0" stroke-width="1.2" paint-order="stroke fill" text-anchor="middle" font-family="'Special Elite', monospace" transform="rotate(10 24 9.5)">Garden of Joy</text><text x="203.3" y="189.6" font-size="4" fill="#26302a" stroke="#f2e8d0" stroke-width="1.2" paint-order="stroke fill" text-anchor="middle" font-family="'Special Elite', monospace" transform="rotate(10 203.3 188)">sssh!</text><text x="9.9" y="21.5" font-size="4" fill="#26302a" stroke="#f2e8d0" stroke-width="1.2" paint-order="stroke fill" text-anchor="middle" font-family="'Special Elite', monospace" transform="rotate(10 9.9 19.9)">Ran'Dome</text><text x="213.6" y="177.29999999999998" font-size="4" fill="#26302a" stroke="#f2e8d0" stroke-width="1.2" paint-order="stroke fill" text-anchor="middle" font-family="'Special Elite', monospace" transform="rotate(10 213.6 175.7)">Come &amp; Play</text><text x="89" y="34.800000000000004" font-size="4" fill="#26302a" stroke="#f2e8d0" stroke-width="1.2" paint-order="stroke fill" text-anchor="middle" font-family="'Special Elite', monospace" transform="rotate(10 89 33.2)">Camp Cambio</text><text x="31.6" y="61.5" font-size="4" fill="#26302a" stroke="#f2e8d0" stroke-width="1.2" paint-order="stroke fill" text-anchor="middle" font-family="'Special Elite', monospace" transform="rotate(10 31.6 59.9)">Barrio Espace</text><text x="43" y="73.8" font-size="4" fill="#26302a" stroke="#f2e8d0" stroke-width="1.2" paint-order="stroke fill" text-anchor="middle" font-family="'Special Elite', monospace" transform="rotate(10 43 72.2)">Glowy Owl</text><text x="48.4" y="89.69999999999999" font-size="4" fill="#26302a" stroke="#f2e8d0" stroke-width="1.2" paint-order="stroke fill" text-anchor="middle" font-family="'Special Elite', monospace" transform="rotate(10 48.4 88.1)">EYAO</text><text x="50" y="103.89999999999999" font-size="4" fill="#26302a" stroke="#f2e8d0" stroke-width="1.2" paint-order="stroke fill" text-anchor="middle" font-family="'Special Elite', monospace" transform="rotate(10 50 102.3)">Glitch</text><text x="95.8" y="72.9" font-size="2.8" fill="#26302a" stroke="#f2e8d0" stroke-width="0.9" paint-order="stroke fill" text-anchor="middle" font-family="'Special Elite', monospace" font-weight="bold" transform="rotate(10 95.8 80.9)">MAIN STAGE</text></g><text x="228" y="168" font-size="5.5" fill="#2e4439" font-family="'Special Elite', monospace" font-weight="bold" text-anchor="middle" opacity="0.7" style="pointer-events: none;">GATE ⟶</text></svg>